# xmcd
#
# Track frame offsets:
#	150
#	26602
#	39475
#	97145
#	108987
#	122162
#	140047
#	166622
#	186410
#
# Disc length: 2809 seconds
#
# Revision: 2
# Processed by: cddbd v1.5.2PL0 Copyright (c) Steve Scherf et al.
# Submitted via: audiograbber 1.83.01
#
DISCID=7a0af709
DTITLE=Roberta Flack - Feel Like Makin' Love
DYEAR=1975
DGENRE=Soul Oldies
TTITLE0=Feelin' That Glow
TTITLE1=I Wanted It Too
TTITLE2=I Can See The Sun In Late December
TTITLE3=Some Gospel According To Matthew
TTITLE4=Feel Like Makin' Love
TTITLE5=Mr. Magic
TTITLE6=Early Ev'ry Midnite
TTITLE7=Old Heartbreak Top Ten
TTITLE8=She's Not Blind
EXTD=MARO\n
EXTT0=
EXTT1=
EXTT2=
EXTT3=
EXTT4=
EXTT5=
EXTT6=
EXTT7=
EXTT8=
PLAYORDER=
